<?xml version="1.0" encoding="utf-8"?>
<!-- Svg Vector Icons : http://www.onlinewebfonts.com/icon -->
<!DOCTYPE svg PUBLIC "-//W3C//DTD SVG 1.1//EN" "http://www.w3.org/Graphics/SVG/1.1/DTD/svg11.dtd">
<svg version="1.1" xmlns="http://www.w3.org/2000/svg" xmlns:xlink="http://www.w3.org/1999/xlink" x="0px" y="0px" viewBox="0 0 1000 1000" enable-background="new 0 0 1000 1000" xml:space="preserve">
<metadata> Svg Vector Icons : http://www.onlinewebfonts.com/icon </metadata>
<g><path d="M500,555.1l456.4-380.3c-2.5-0.4-4.7-1.5-7.3-1.5H50.9c-2.5,0-4.7,1-7.2,1.5L500,555.1L500,555.1z M990,214.2c0-4.3-1.2-8.3-2.5-12.2L664,471.7l324,324.1c0.8-3.3,2-6.4,2-9.9V214.2L990,214.2L990,214.2z M12.5,202c-1.3,3.9-2.5,7.8-2.5,12.2v571.6c0,3.6,1.2,6.7,2,10l324.1-324.1L12.5,202L12.5,202z M632.4,497.9L513,597.4c-3.7,3.2-8.4,4.7-13,4.7c-4.6,0-9.3-1.5-13.1-4.7L367.7,498L41,824.6c3.2,0.9,6.4,2,9.9,2h898.3c3.5,0,6.7-1.2,10-2L632.4,497.9L632.4,497.9z"/></g>
</svg>