<?xml version="1.0" encoding="UTF-8" standalone="no"?>
<!-- Svg Vector Icons : http://www.onlinewebfonts.com/icon -->

<svg
   xmlns:dc="http://purl.org/dc/elements/1.1/"
   xmlns:cc="http://creativecommons.org/ns#"
   xmlns:rdf="http://www.w3.org/1999/02/22-rdf-syntax-ns#"
   xmlns:svg="http://www.w3.org/2000/svg"
   xmlns="http://www.w3.org/2000/svg"
   xmlns:sodipodi="http://sodipodi.sourceforge.net/DTD/sodipodi-0.dtd"
   xmlns:inkscape="http://www.inkscape.org/namespaces/inkscape"
   version="1.1"
   x="0px"
   y="0px"
   viewBox="0 0 1000 1000"
   enable-background="new 0 0 1000 1000"
   xml:space="preserve"
   id="svg124"
   sodipodi:docname="github-webfont.svg"
   inkscape:version="0.92.3 (2405546, 2018-03-11)"><defs
   id="defs128" /><sodipodi:namedview
   pagecolor="#ffffff"
   bordercolor="#666666"
   borderopacity="1"
   objecttolerance="10"
   gridtolerance="10"
   guidetolerance="10"
   inkscape:pageopacity="0"
   inkscape:pageshadow="2"
   inkscape:window-width="3840"
   inkscape:window-height="2004"
   id="namedview126"
   showgrid="false"
   inkscape:zoom="0.236"
   inkscape:cx="500"
   inkscape:cy="500"
   inkscape:window-x="-16"
   inkscape:window-y="-16"
   inkscape:window-maximized="1"
   inkscape:current-layer="svg124" />
<metadata
   id="metadata86"> Svg Vector Icons : http://www.onlinewebfonts.com/icon <rdf:RDF><cc:Work
     rdf:about=""><dc:format>image/svg+xml</dc:format><dc:type
       rdf:resource="http://purl.org/dc/dcmitype/StillImage" /></cc:Work></rdf:RDF></metadata>
<g
   id="g122"><g
     id="g90"><path
       d="M500,10C229.4,10,10,229.4,10,500s219.4,490,490,490s490-219.4,490-490S770.6,10,500,10z M791,791c-37.8,37.8-81.8,67.5-130.8,88.2c-12.4,5.3-25.1,9.9-37.9,13.9v-73.4c0-38.6-13.2-67-39.7-85.2c16.6-1.6,31.8-3.8,45.7-6.7s28.6-7,44-12.4c15.5-5.4,29.4-11.9,41.6-19.4c12.3-7.5,24.1-17.2,35.4-29.2c11.3-12,20.8-25.5,28.5-40.7s13.7-33.3,18.2-54.6c4.5-21.2,6.7-44.6,6.7-70.1c0-49.4-16.1-91.6-48.3-126.3c14.7-38.3,13.1-79.9-4.8-124.9l-12-1.4c-8.3-1-23.2,2.6-44.7,10.5s-45.7,21.1-72.5,39.2c-38-10.5-77.4-15.8-118.2-15.8c-41.2,0-80.4,5.3-117.7,15.8c-16.9-11.5-32.9-21-48.1-28.5c-15.2-7.5-27.3-12.6-36.4-15.3s-17.5-4.4-25.4-5c-7.8-0.6-12.8-0.8-15.1-0.5c-2.2,0.3-3.8,0.6-4.8,1c-17.9,45.3-19.5,86.9-4.8,124.9c-32.2,34.8-48.3,76.9-48.3,126.3c0,25.5,2.2,48.9,6.7,70.1c4.5,21.2,10.5,39.4,18.2,54.6s17.1,28.7,28.5,40.7c11.3,12,23.1,21.7,35.4,29.2c12.3,7.5,26.2,14,41.6,19.4c15.5,5.4,30.1,9.6,44,12.4s29.1,5.1,45.7,6.7c-26.2,17.9-39.2,46.3-39.2,85.2v74.9c-14.4-4.3-28.7-9.4-42.7-15.3c-49-20.7-93-50.4-130.8-88.2c-37.8-37.8-67.5-81.8-88.2-130.8C99.3,609.5,88.5,555.6,88.5,500s10.9-109.5,32.3-160.2c20.7-49,50.4-93,88.2-130.8c37.8-37.8,81.8-67.5,130.8-88.2C390.5,99.3,444.4,88.5,500,88.5s109.5,10.9,160.2,32.3c49,20.7,93,50.4,130.8,88.2c37.8,37.8,67.5,81.8,88.2,130.8c21.4,50.7,32.3,104.6,32.3,160.2s-10.9,109.5-32.3,160.2C858.5,709.2,828.8,753.2,791,791z"
       id="path88" /></g><g
     id="g92" /><g
     id="g94" /><g
     id="g96" /><g
     id="g98" /><g
     id="g100" /><g
     id="g102" /><g
     id="g104" /><g
     id="g106" /><g
     id="g108" /><g
     id="g110" /><g
     id="g112" /><g
     id="g114" /><g
     id="g116" /><g
     id="g118" /><g
     id="g120" /></g>
<path
   style="fill:#ffffff;stroke-width:4.237288"
   d="M 441.72572,984.87153 C 326.79328,970.26314 225.10503,918.00008 144.77151,832.25072 -28.301695,647.50945 -31.666935,362.82238 137.00213,174.98892 320.64603,-29.520833 634.9522,-42.358928 834.6575,146.49261 c 73.83381,69.82105 121.07716,154.44745 144.27199,258.43271 9.92428,44.49171 9.81449,142.79909 -0.21229,189.98993 -20.1769,94.96306 -60.51271,171.38539 -127.02275,240.66378 -71.34462,74.31419 -151.42835,119.67368 -249.02136,141.04584 -42.8522,9.38432 -120.63915,13.36996 -160.94745,8.24666 z M 383.92277,841.73729 c 2.11256,-57.15941 8.20105,-77.78415 28.3382,-95.99572 4.90901,-4.43958 8.92547,-9.42068 8.92547,-11.06915 0,-1.64844 -10.4145,-4.22119 -23.14335,-5.71721 -35.36019,-4.15589 -86.64484,-21.9758 -111.37013,-38.69784 -57.29501,-38.74936 -84.32378,-103.95356 -80.79857,-194.91839 1.75673,-45.33072 11.9216,-75.75349 35.74814,-106.99169 9.43826,-12.3742 10.20667,-15.76395 6.18723,-27.29413 -6.6461,-19.06503 -5.6308,-61.94051 2.08177,-87.91155 l 6.67119,-22.46433 21.53115,2.06888 c 14.78507,1.42065 35.27762,9.10692 65.40508,24.53186 l 43.87392,22.463 22.2034,-5.39233 c 38.95098,-9.45966 119.31954,-10.69701 168.70606,-2.5974 l 44.1753,7.24496 28.60055,-16.71433 c 32.90305,-19.22874 69.38182,-31.81415 86.47847,-29.83564 9.67314,1.11941 12.73649,4.43984 16.89827,18.31643 6.288,20.96598 7.21165,78.19044 1.50436,93.20176 -3.6011,9.4716 -2.36949,13.45122 8.28136,26.75889 28.54097,35.66045 40.35101,86.2502 34.15483,146.30651 -8.43229,81.72932 -44.2495,139.17975 -103.75539,166.42242 -25.36733,11.61356 -82.6619,27.05618 -100.38262,27.05618 -15.25221,0 -15.15149,3.90238 0.48746,18.88547 19.168,18.36407 25.61406,43.19809 25.61406,98.68034 0,56.73708 -5.60631,54.71114 61.44068,22.20254 111.16496,-53.89979 186.00148,-147.14 221.01093,-275.36157 C 914.35911,552.54568 913.24208,443.43148 900.7775,398.26936 859.21398,247.67526 750.17449,139.00483 599.77297,98.283576 574.19492,91.358318 553.99008,89.435042 503.81356,89.149318 427.80331,88.716483 386.83619,97.265958 325.34678,126.39377 275.45506,150.0277 252.86961,165.52549 214.15617,202.69107 13.530211,395.29553 56.438903,724.53614 300.08698,862.04263 c 21.0393,11.87381 70.42576,32.75669 79.22349,33.49932 1.43856,0.12119 3.51409,-24.09068 4.6123,-53.80466 z"
   id="path130"
   inkscape:connector-curvature="0" /></svg>