<?xml version="1.0" encoding="utf-8"?>
<!-- Svg Vector Icons : http://www.onlinewebfonts.com/icon -->
<!DOCTYPE svg PUBLIC "-//W3C//DTD SVG 1.1//EN" "http://www.w3.org/Graphics/SVG/1.1/DTD/svg11.dtd">
<svg version="1.1" xmlns="http://www.w3.org/2000/svg" xmlns:xlink="http://www.w3.org/1999/xlink" x="0px" y="0px" viewBox="0 0 1000 1000" enable-background="new 0 0 1000 1000" xml:space="preserve">
<metadata> Svg Vector Icons : http://www.onlinewebfonts.com/icon </metadata>
<g><g transform="translate(0.000000,250.000000) scale(0.100000,-0.100000)"><path d="M693.6,2385.6c-179.3-79.7-406.3-294.8-505.9-478L100,1744.2v-4242.7v-4242.7l87.7-163.4c99.6-191.2,330.6-402.4,513.9-478c195.2-83.7,8401.7-83.7,8596.9,0c195.2,79.7,394.4,270.9,501.9,490l99.6,191.3v4202.8v4202.8l-99.6,191.2c-107.6,219.1-306.8,410.3-501.9,490C9103.3,2465.2,876.8,2465.2,693.6,2385.6z M3091.8,373.8c422.3-191.2,482-792.8,115.5-1115.4C3048-881.1,2876.7-920.9,2554-897c-406.4,27.9-641.4,278.9-641.4,681.2c0,262.9,107.6,442.2,338.6,573.7C2458.4,473.4,2852.8,481.3,3091.8,373.8z M7298.6-1490.6c410.3-187.2,685.2-513.9,824.6-984c79.7-251,83.7-370.5,83.7-1641.3v-1370.4h-677.2h-677.2v1087.5c0,613.5-19.9,1191.2-43.8,1326.6c-79.7,446.2-278.9,629.4-681.2,625.4c-278.9-4-486-119.5-633.4-358.6c-95.6-151.3-95.6-163.3-107.6-1414.2l-11.9-1266.8h-677.3H4024v2011.8v2011.8h677.2h677.2v-266.9v-266.9l211.1,203.2c346.6,338.6,561.7,414.3,1123.4,398.4C7015.8-1403,7155.2-1426.9,7298.6-1490.6z M3366.7-3474.5v-1991.9l-685.2-12l-689.2-7.9v2011.8v2011.8l689.2-8l685.2-11.9V-3474.5z"/></g></g>
</svg>