<?xml version="1.0" encoding="UTF-8" standalone="no"?>
<!-- Svg Vector Icons : http://www.onlinewebfonts.com/icon -->

<svg
   xmlns:dc="http://purl.org/dc/elements/1.1/"
   xmlns:cc="http://creativecommons.org/ns#"
   xmlns:rdf="http://www.w3.org/1999/02/22-rdf-syntax-ns#"
   xmlns:svg="http://www.w3.org/2000/svg"
   xmlns="http://www.w3.org/2000/svg"
   xmlns:sodipodi="http://sodipodi.sourceforge.net/DTD/sodipodi-0.dtd"
   xmlns:inkscape="http://www.inkscape.org/namespaces/inkscape"
   version="1.1"
   x="0px"
   y="0px"
   viewBox="0 0 1000 1000"
   enable-background="new 0 0 1000 1000"
   xml:space="preserve"
   id="svg473"
   sodipodi:docname="linked-in-webfont.svg"
   inkscape:version="0.92.3 (2405546, 2018-03-11)"><defs
   id="defs477" /><sodipodi:namedview
   pagecolor="#ffffff"
   bordercolor="#666666"
   borderopacity="1"
   objecttolerance="10"
   gridtolerance="10"
   guidetolerance="10"
   inkscape:pageopacity="0"
   inkscape:pageshadow="2"
   inkscape:window-width="3840"
   inkscape:window-height="2004"
   id="namedview475"
   showgrid="false"
   inkscape:zoom="1.647"
   inkscape:cx="500"
   inkscape:cy="500"
   inkscape:window-x="-16"
   inkscape:window-y="-16"
   inkscape:window-maximized="1"
   inkscape:current-layer="svg473" />
<metadata
   id="metadata465"> Svg Vector Icons : http://www.onlinewebfonts.com/icon <rdf:RDF><cc:Work
     rdf:about=""><dc:format>image/svg+xml</dc:format><dc:type
       rdf:resource="http://purl.org/dc/dcmitype/StillImage" /></cc:Work></rdf:RDF></metadata>
<g
   id="g471"><g
     transform="translate(0.000000,250.000000) scale(0.100000,-0.100000)"
     id="g469"><path
       d="M693.6,2385.6c-179.3-79.7-406.3-294.8-505.9-478L100,1744.2v-4242.7v-4242.7l87.7-163.4c99.6-191.2,330.6-402.4,513.9-478c195.2-83.7,8401.7-83.7,8596.9,0c195.2,79.7,394.4,270.9,501.9,490l99.6,191.3v4202.8v4202.8l-99.6,191.2c-107.6,219.1-306.8,410.3-501.9,490C9103.3,2465.2,876.8,2465.2,693.6,2385.6z M3091.8,373.8c422.3-191.2,482-792.8,115.5-1115.4C3048-881.1,2876.7-920.9,2554-897c-406.4,27.9-641.4,278.9-641.4,681.2c0,262.9,107.6,442.2,338.6,573.7C2458.4,473.4,2852.8,481.3,3091.8,373.8z M7298.6-1490.6c410.3-187.2,685.2-513.9,824.6-984c79.7-251,83.7-370.5,83.7-1641.3v-1370.4h-677.2h-677.2v1087.5c0,613.5-19.9,1191.2-43.8,1326.6c-79.7,446.2-278.9,629.4-681.2,625.4c-278.9-4-486-119.5-633.4-358.6c-95.6-151.3-95.6-163.3-107.6-1414.2l-11.9-1266.8h-677.3H4024v2011.8v2011.8h677.2h677.2v-266.9v-266.9l211.1,203.2c346.6,338.6,561.7,414.3,1123.4,398.4C7015.8-1403,7155.2-1426.9,7298.6-1490.6z M3366.7-3474.5v-1991.9l-685.2-12l-689.2-7.9v2011.8v2011.8l689.2-8l685.2-11.9V-3474.5z"
       id="path467" /></g></g>
<path
   style="fill:#ffffff;stroke-width:0.60716456"
   d="M 349.05889,993.82332 C 201.3368,993.0663 100.74137,991.27456 77.352763,988.98379 72.496928,988.5082 70.413345,987.97747 66.947563,986.33345 58.097553,982.1354 49.165389,975.63127 39.787864,966.55647 28.61534,955.74463 24.254252,949.86563 15.773489,934.18385 L 10.261081,923.99077 V 499.83014 75.669484 l 4.957104,-9.176576 C 20.973145,55.839345 22.022101,54.146208 26.921928,47.6017 36.593102,34.684289 54.280456,19.327583 66.846543,12.937918 70.412562,11.124652 76.018986,10.500057 96.174863,9.6705364 159.31513,7.0719826 250.24118,6.3145112 499.02854,6.3145112 c 248.38457,0 341.21724,0.7729616 403.46083,3.3593737 23.30583,0.9684281 26.1252,1.3386711 31.75714,4.1703511 7.77073,3.907049 15.48027,9.450641 22.50637,16.183334 11.60438,11.119714 16.25186,17.619976 26.19909,36.643608 l 6.66552,12.747492 v 420.44644 420.44643 l -6.46102,12.3397 c -9.25094,17.66807 -13.31415,23.72642 -22.06843,32.90432 -8.36642,8.77134 -18.53922,16.38755 -27.68598,20.72805 -3.52453,1.67255 -5.53746,2.17869 -10.64705,2.67705 -24.86636,2.42538 -117.0966,3.99338 -288.63236,4.90698 -118.7553,0.63248 -154.06499,0.62696 -285.06376,-0.0443 z m -61.4991,-196.10055 c 18.10325,-0.31706 36.61417,-0.57644 41.1354,-0.57644 h 8.22041 V 597.72029 398.29425 l -1.97328,-0.30217 c -1.08531,-0.16619 -25.47055,-0.5891 -54.18944,-0.9398 -28.71888,-0.3507 -58.84183,-0.7809 -66.93989,-0.956 l -14.72374,-0.31835 V 597.40512 799.0323 l 27.77778,-0.36654 c 15.27778,-0.20158 42.58952,-0.62593 60.69276,-0.94299 z m 250.32275,-9.53212 c -0.009,-20.30516 1.22806,-140.68968 1.82623,-177.78596 0.95721,-59.36306 1.74097,-66.09043 9.1238,-78.31306 9.53875,-15.7919 22.26043,-26.92569 37.0205,-32.39971 18.41644,-6.83003 44.85276,-6.09551 60.94219,1.69327 16.77031,8.1184 27.59223,25.02076 32.83813,51.2887 3.82684,19.16256 5.17268,63.6198 5.18142,171.15732 l 0.006,75.13661 h 68.04657 68.04663 l -0.26813,-125.83485 c -0.27122,-127.2704 -0.40807,-135.28794 -2.5881,-151.63935 -1.49162,-11.18804 -4.68239,-23.23084 -9.81305,-37.03703 -13.68834,-36.83436 -37.2507,-64.29173 -69.99344,-81.56386 -12.42824,-6.55601 -22.76594,-9.8475 -36.42988,-11.59911 -20.09975,-2.57662 -58.41171,-2.80109 -73.82161,-0.43252 -17.7355,2.72602 -29.38216,7.16314 -43.20451,16.45995 -9.07964,6.10689 -15.30531,11.47884 -32.63994,28.16404 l -13.96478,13.44161 -0.15817,-26.5607 -0.15818,-26.56069 -67.84425,0.15442 -67.84426,0.15442 -0.15269,201.42683 -0.1527,201.42684 h 68.00333 68.00334 l -0.004,-10.77717 z M 290.75376,339.0822 c 20.23477,-4.20517 36.03024,-16.19327 46.05454,-34.95348 5.43608,-10.17347 8.13577,-21.23573 8.14967,-33.39405 0.0138,-12.12925 -2.33124,-21.87291 -7.68789,-31.94237 -12.13364,-22.80888 -34.56081,-33.79759 -68.96407,-33.79057 -26.44512,0.005 -43.70666,6.01817 -58.818,20.48829 -8.70667,8.33722 -13.27215,16.02672 -16.23163,27.33846 -1.28068,4.89501 -1.64781,7.96172 -1.90115,15.88104 -0.44264,13.83622 1.15821,23.73704 5.5041,34.04156 9.43201,22.36414 29.80367,35.02587 60.21414,37.42525 7.00286,0.55253 29.23151,-0.16958 33.68029,-1.09413 z"
   id="path479"
   inkscape:connector-curvature="0" /></svg>